<svg width="36" height="36" viewBox="0 0 36 36" fill="none" xmlns="http://www.w3.org/2000/svg">
<path d="M32.3188 11.9088C31.8968 11.487 31.3246 11.25 30.728 11.25C30.1314 11.25 29.5592 11.487 29.1373 11.9088L17.9998 23.0463L6.86227 11.9088C6.43791 11.4989 5.86956 11.2721 5.27962 11.2773C4.68967 11.2824 4.12534 11.519 3.70818 11.9362C3.29101 12.3533 3.05438 12.9177 3.04925 13.5076C3.04413 14.0976 3.27091 14.6659 3.68077 15.0903L16.409 27.8185C16.831 28.2403 17.4032 28.4773 17.9998 28.4773C18.5964 28.4773 19.1686 28.2403 19.5905 27.8185L32.3188 15.0903C32.7406 14.6683 32.9775 14.0961 32.9775 13.4995C32.9775 12.9029 32.7406 12.3307 32.3188 11.9088V11.9088Z" fill="#FDF9F2"/>
</svg>
