<svg width="24" height="24" viewBox="0 0 24 24" fill="none" xmlns="http://www.w3.org/2000/svg">
<path d="M5.29201 6.00002C3.81337 7.6484 2.99695 9.78562 3.00001 12C3.00001 12.687 3.07701 13.357 3.22301 14M5.29201 6.00002C6.39319 4.76986 7.81143 3.86619 9.39165 3.38785C10.9719 2.90951 12.6532 2.87491 14.2517 3.28784C15.8503 3.70077 17.3045 4.54532 18.4554 5.72914C19.6062 6.91295 20.4094 8.39044 20.777 10M5.29201 6.00002H12M20.777 10C21.2211 11.9456 21.0059 13.9836 20.1654 15.7935C19.3249 17.6035 17.9066 19.0828 16.1336 19.9987C14.3606 20.9147 12.3335 21.2154 10.371 20.8536C8.40843 20.4918 6.6218 19.488 5.29201 18M20.777 10H15M3.22301 14H13M3.22301 14C3.56151 15.4875 4.2736 16.8642 5.29201 18M5.29201 18H11M12 10H10" stroke="#D9310B" stroke-width="2" stroke-linecap="round" stroke-linejoin="round"/>
</svg>
