<svg width="24" height="24" viewBox="0 0 24 24" fill="none" xmlns="http://www.w3.org/2000/svg">
<path fill-rule="evenodd" clip-rule="evenodd" d="M4.85901 5.00001C5.78907 4.04899 6.89999 3.29364 8.12637 2.77843C9.35274 2.26322 10.6698 1.99855 12 2.00001C16.479 2.00001 20.267 4.94301 21.542 9.00001H15C14.7348 9.00001 14.4804 9.10536 14.2929 9.2929C14.1054 9.48044 14 9.73479 14 10C14 10.2652 14.1054 10.5196 14.2929 10.7071C14.4804 10.8946 14.7348 11 15 11H21.95C21.983 11.33 22 11.663 22 12C22 17.523 17.523 22 12 22C10.6698 22.0015 9.35272 21.7369 8.12633 21.2217C6.89995 20.7064 5.78903 19.9511 4.85901 19H11C11.2652 19 11.5196 18.8946 11.7071 18.7071C11.8946 18.5196 12 18.2652 12 18C12 17.7348 11.8946 17.4804 11.7071 17.2929C11.5196 17.1054 11.2652 17 11 17H3.33801C2.97214 16.3677 2.67703 15.697 2.45801 15H13C13.2652 15 13.5196 14.8946 13.7071 14.7071C13.8946 14.5196 14 14.2652 14 14C14 13.7348 13.8946 13.4804 13.7071 13.2929C13.5196 13.1054 13.2652 13 13 13H2.05001C1.83724 10.9142 2.28834 8.81441 3.33901 7.00001H12C12.2652 7.00001 12.5196 6.89465 12.7071 6.70711C12.8946 6.51958 13 6.26522 13 6.00001C13 5.73479 12.8946 5.48044 12.7071 5.2929C12.5196 5.10536 12.2652 5.00001 12 5.00001H4.85901ZM10 9.00001C9.73479 9.00001 9.48044 9.10536 9.2929 9.2929C9.10536 9.48044 9.00001 9.73479 9.00001 10C9.00001 10.2652 9.10536 10.5196 9.2929 10.7071C9.48044 10.8946 9.73479 11 10 11H12C12.2652 11 12.5196 10.8946 12.7071 10.7071C12.8946 10.5196 13 10.2652 13 10C13 9.73479 12.8946 9.48044 12.7071 9.2929C12.5196 9.10536 12.2652 9.00001 12 9.00001H10ZM7.70801 10.708C7.52048 10.8955 7.26617 11.0008 7.00101 11.0008C6.73584 11.0008 6.48153 10.8955 6.29401 10.708H6.29301C6.10536 10.5205 5.9999 10.2661 5.9998 10.0009C5.99976 9.86951 6.02558 9.73944 6.0758 9.61807C6.12603 9.4967 6.19966 9.38642 6.29251 9.29351C6.38535 9.2006 6.49559 9.12688 6.61692 9.07657C6.73825 9.02627 6.8683 9.00035 6.99965 9.0003C7.26492 9.00021 7.51936 9.1055 7.70701 9.29301C7.79998 9.38588 7.87374 9.49617 7.92407 9.61757C7.97439 9.73896 8.00029 9.86909 8.00029 10.0005C8.00029 10.1319 7.97439 10.262 7.92407 10.3834C7.87374 10.5048 7.79998 10.6151 7.70701 10.708H7.70801ZM15.294 14.708C15.3863 14.8035 15.4966 14.8797 15.6186 14.9321C15.7406 14.9845 15.8718 15.0121 16.0046 15.0133C16.1374 15.0144 16.2691 14.9891 16.392 14.9388C16.5149 14.8885 16.6265 14.8143 16.7204 14.7204C16.8143 14.6265 16.8885 14.5149 16.9388 14.392C16.9891 14.2691 17.0144 14.1374 17.0133 14.0046C17.0121 13.8718 16.9845 13.7406 16.9321 13.6186C16.8797 13.4966 16.8035 13.3863 16.708 13.294V13.293C16.5205 13.1054 16.2661 12.9999 16.0009 12.9998C15.7356 12.9997 15.4811 13.105 15.2935 13.2925C15.1059 13.48 15.0004 13.7344 15.0003 13.9997C15.0002 14.2649 15.1055 14.5194 15.293 14.707L15.294 14.708Z" fill="#D9310B"/>
</svg>
