<svg width="107" height="44" viewBox="0 0 107 44" fill="none" xmlns="http://www.w3.org/2000/svg">
<path d="M8.72122 13H0.793898C0.577492 13 0.418034 12.9544 0.315526 12.8633C0.224407 12.7608 0.178848 12.6014 0.178848 12.3849V1.31403C0.178848 1.09763 0.224407 0.943864 0.315526 0.852746C0.418034 0.750237 0.577492 0.698983 0.793898 0.698983H8.72122C8.93763 0.698983 9.09139 0.750237 9.18251 0.852746C9.28502 0.943864 9.33627 1.09763 9.33627 1.31403V3.31295C9.33627 3.52936 9.28502 3.68881 9.18251 3.79132C9.09139 3.88244 8.93763 3.928 8.72122 3.928H4.00583V5.24353H7.33736C7.55376 5.24353 7.70753 5.29478 7.79864 5.39729C7.90115 5.48841 7.95241 5.64217 7.95241 5.85858V7.68664C7.95241 7.90305 7.90115 8.06251 7.79864 8.16502C7.70753 8.25614 7.55376 8.30169 7.33736 8.30169H4.00583V9.77098H8.72122C8.93763 9.77098 9.09139 9.82224 9.18251 9.92475C9.28502 10.0159 9.33627 10.1696 9.33627 10.386V12.3849C9.33627 12.6014 9.28502 12.7608 9.18251 12.8633C9.09139 12.9544 8.93763 13 8.72122 13ZM15.0306 12.3849C15.0306 12.6014 14.9793 12.7608 14.8768 12.8633C14.7857 12.9544 14.6319 13 14.4155 13H11.8186C11.6022 13 11.4428 12.9544 11.3403 12.8633C11.2491 12.7608 11.2036 12.6014 11.2036 12.3849V10.5569C11.2036 10.0329 11.2491 9.64 11.3403 9.37803C11.4314 9.11607 11.6022 8.80854 11.8528 8.45546L13.2367 6.59322L11.8528 4.73098C11.5908 4.3779 11.4143 4.07037 11.3232 3.80841C11.2434 3.54644 11.2036 3.15349 11.2036 2.62956V1.31403C11.2036 1.09763 11.2491 0.943864 11.3403 0.852746C11.4428 0.750237 11.6022 0.698983 11.8186 0.698983H14.4497C14.6661 0.698983 14.8199 0.750237 14.911 0.852746C15.0135 0.943864 15.0647 1.09763 15.0647 1.31403V2.49288C15.0647 2.60678 15.0704 2.72637 15.0818 2.85166C15.0932 2.97695 15.1388 3.09654 15.2185 3.21044L15.9702 4.28678C16.0272 4.3779 16.0841 4.45193 16.1411 4.50888C16.2094 4.55444 16.2891 4.57722 16.3803 4.57722H16.5853C16.6764 4.57722 16.7504 4.55444 16.8074 4.50888C16.8643 4.45193 16.927 4.3779 16.9953 4.28678L17.7641 3.21044C17.8439 3.09654 17.8894 2.97695 17.9008 2.85166C17.9122 2.72637 17.9179 2.60678 17.9179 2.49288V1.31403C17.9179 1.09763 17.9634 0.943864 18.0546 0.852746C18.1571 0.750237 18.3165 0.698983 18.5329 0.698983H21.1298C21.3462 0.698983 21.5 0.750237 21.5911 0.852746C21.6936 0.943864 21.7449 1.09763 21.7449 1.31403V2.62956C21.7449 3.15349 21.6993 3.54644 21.6082 3.80841C21.5171 4.07037 21.3462 4.3779 21.0956 4.73098L19.7118 6.6103L21.0956 8.45546C21.3576 8.80854 21.5285 9.11607 21.6082 9.37803C21.6993 9.64 21.7449 10.0329 21.7449 10.5569V12.3849C21.7449 12.6014 21.6936 12.7608 21.5911 12.8633C21.5 12.9544 21.3462 13 21.1298 13H18.5329C18.3165 13 18.1571 12.9544 18.0546 12.8633C17.9634 12.7608 17.9179 12.6014 17.9179 12.3849V10.6936C17.9179 10.5797 17.9122 10.4601 17.9008 10.3348C17.8894 10.2095 17.8439 10.0899 17.7641 9.976L17.0124 8.89966C16.9441 8.79715 16.8814 8.72312 16.8245 8.67756C16.7675 8.632 16.6935 8.60922 16.6024 8.60922H16.3632C16.2721 8.60922 16.198 8.632 16.1411 8.67756C16.0841 8.72312 16.0215 8.79715 15.9531 8.89966L15.1843 9.976C15.1046 10.0899 15.059 10.2095 15.0476 10.3348C15.0363 10.4601 15.0306 10.5797 15.0306 10.6936V12.3849ZM27.2172 13H24.5691C24.3526 13 24.1932 12.9544 24.0907 12.8633C23.9996 12.7608 23.954 12.6014 23.954 12.3849V1.31403C23.954 1.09763 23.9996 0.943864 24.0907 0.852746C24.1932 0.750237 24.3526 0.698983 24.5691 0.698983H29.797C31.346 0.698983 32.4053 1.00651 32.9748 1.62156C33.5442 2.23661 33.829 3.03959 33.829 4.03051V6.21736C33.829 7.20827 33.5442 8.01125 32.9748 8.6263C32.4053 9.24136 31.346 9.54888 29.797 9.54888H27.8322V12.3849C27.8322 12.6014 27.781 12.7608 27.6785 12.8633C27.5874 12.9544 27.4336 13 27.2172 13ZM27.7981 3.89383V6.47363H29.3357C29.666 6.47363 29.8824 6.3882 29.9849 6.21736C30.0874 6.04651 30.1387 5.85288 30.1387 5.63647V4.73098C30.1387 4.51458 30.0874 4.32095 29.9849 4.1501C29.8824 3.97925 29.666 3.89383 29.3357 3.89383H27.7981ZM44.9108 13H36.2147C35.9983 13 35.8388 12.9544 35.7363 12.8633C35.6452 12.7608 35.5997 12.6014 35.5997 12.3849V1.31403C35.5997 1.09763 35.6452 0.943864 35.7363 0.852746C35.8388 0.750237 35.9983 0.698983 36.2147 0.698983H38.8628C39.0793 0.698983 39.233 0.750237 39.3241 0.852746C39.4266 0.943864 39.4779 1.09763 39.4779 1.31403V9.77098H41.8185V7.00325C41.8185 6.78685 41.8641 6.63308 41.9552 6.54197C42.0577 6.43946 42.2172 6.3882 42.4336 6.3882H44.9108C45.1273 6.3882 45.281 6.43946 45.3721 6.54197C45.4746 6.63308 45.5259 6.78685 45.5259 7.00325V12.3849C45.5259 12.6014 45.4746 12.7608 45.3721 12.8633C45.281 12.9544 45.1273 13 44.9108 13ZM57.9006 9.77098C57.9006 10.2949 57.8209 10.7733 57.6614 11.2061C57.5133 11.6275 57.24 11.992 56.8413 12.2995C56.4541 12.5957 55.9131 12.8292 55.2183 13C54.5349 13.1708 53.6636 13.2563 52.6043 13.2563C51.5451 13.2563 50.6681 13.1708 49.9733 13C49.2785 12.8292 48.7318 12.5957 48.3331 12.2995C47.9459 11.992 47.6725 11.6275 47.5131 11.2061C47.365 10.7733 47.291 10.2949 47.291 9.77098V3.94508C47.291 3.42115 47.365 2.94847 47.5131 2.52705C47.6725 2.09424 47.9459 1.72407 48.3331 1.41654C48.7318 1.10902 49.2785 0.86983 49.9733 0.698983C50.6681 0.528136 51.5451 0.442712 52.6043 0.442712C53.6636 0.442712 54.5349 0.528136 55.2183 0.698983C55.9131 0.86983 56.4541 1.10902 56.8413 1.41654C57.24 1.72407 57.5133 2.09424 57.6614 2.52705C57.8209 2.94847 57.9006 3.42115 57.9006 3.94508V9.77098ZM51.1692 9.15593C51.1692 9.38373 51.2546 9.57736 51.4255 9.73681C51.5963 9.88488 51.9893 9.95892 52.6043 9.95892C53.2194 9.95892 53.6123 9.88488 53.7832 9.73681C53.954 9.57736 54.0394 9.38373 54.0394 9.15593V4.56014C54.0394 4.34373 53.954 4.16149 53.7832 4.01342C53.6123 3.85397 53.2194 3.77424 52.6043 3.77424C51.9893 3.77424 51.5963 3.85397 51.4255 4.01342C51.2546 4.16149 51.1692 4.34373 51.1692 4.56014V9.15593ZM63.9367 3.77424V5.96108H65.2181C65.5142 5.96108 65.7135 5.88705 65.816 5.73898C65.9185 5.57953 65.9698 5.3859 65.9698 5.1581V4.57722C65.9698 4.34942 65.9185 4.16149 65.816 4.01342C65.7135 3.85397 65.5142 3.77424 65.2181 3.77424H63.9367ZM63.3217 13H60.6906C60.4742 13 60.3147 12.9544 60.2122 12.8633C60.1211 12.7608 60.0756 12.6014 60.0756 12.3849V1.31403C60.0756 1.09763 60.1211 0.943864 60.2122 0.852746C60.3147 0.750237 60.4742 0.698983 60.6906 0.698983H66.3798C67.6555 0.698983 68.5325 0.966644 69.0109 1.50197C69.5006 2.0259 69.7455 2.70929 69.7455 3.55214V4.33803C69.7455 4.81641 69.6715 5.22644 69.5234 5.56814C69.3867 5.89844 69.1419 6.13763 68.7888 6.28569C69.4038 6.35403 69.8993 6.60461 70.2752 7.03742C70.6624 7.47024 70.856 8.04542 70.856 8.76298V12.3849C70.856 12.6014 70.8048 12.7608 70.7023 12.8633C70.6112 12.9544 70.4574 13 70.241 13H67.5928C67.3764 13 67.217 12.9544 67.1145 12.8633C67.0234 12.7608 66.9778 12.6014 66.9778 12.3849V9.77098C66.9778 9.52041 66.9265 9.33817 66.824 9.22427C66.7329 9.09898 66.5678 9.03634 66.3286 9.03634H63.9367V12.3849C63.9367 12.6014 63.8855 12.7608 63.783 12.8633C63.6918 12.9544 63.5381 13 63.3217 13ZM73.114 13C72.8976 13 72.7382 12.9544 72.6357 12.8633C72.5445 12.7608 72.499 12.6014 72.499 12.3849V10.3519C72.499 10.1355 72.5445 9.98169 72.6357 9.89058C72.7382 9.78807 72.8976 9.73681 73.114 9.73681H74.8054V3.99634H73.114C72.8976 3.99634 72.7382 3.95078 72.6357 3.85966C72.5445 3.75715 72.499 3.59769 72.499 3.38129V1.31403C72.499 1.09763 72.5445 0.943864 72.6357 0.852746C72.7382 0.750237 72.8976 0.698983 73.114 0.698983H80.3921C80.6085 0.698983 80.7623 0.750237 80.8534 0.852746C80.9559 0.943864 81.0072 1.09763 81.0072 1.31403V3.38129C81.0072 3.59769 80.9559 3.75715 80.8534 3.85966C80.7623 3.95078 80.6085 3.99634 80.3921 3.99634H78.7349V9.73681H80.3921C80.6085 9.73681 80.7623 9.78807 80.8534 9.89058C80.9559 9.98169 81.0072 10.1355 81.0072 10.3519V12.3849C81.0072 12.6014 80.9559 12.7608 80.8534 12.8633C80.7623 12.9544 80.6085 13 80.3921 13H73.114ZM86.2944 13H83.7317C83.5153 13 83.3558 12.9544 83.2533 12.8633C83.1622 12.7608 83.1166 12.6014 83.1166 12.3849V1.31403C83.1166 1.09763 83.1622 0.943864 83.2533 0.852746C83.3558 0.750237 83.5153 0.698983 83.7317 0.698983H85.5085C85.7249 0.698983 85.9071 0.733152 86.0552 0.801491C86.2146 0.86983 86.3684 0.989424 86.5165 1.16027L89.8309 4.95308V1.31403C89.8309 1.09763 89.8765 0.943864 89.9676 0.852746C90.0701 0.750237 90.2296 0.698983 90.446 0.698983H93.0087C93.2251 0.698983 93.3788 0.750237 93.47 0.852746C93.5725 0.943864 93.6237 1.09763 93.6237 1.31403V12.3849C93.6237 12.6014 93.5725 12.7608 93.47 12.8633C93.3788 12.9544 93.2251 13 93.0087 13H90.446C90.2296 13 90.0701 12.9544 89.9676 12.8633C89.8765 12.7608 89.8309 12.6014 89.8309 12.3849V10.2835L86.9094 6.74698V12.3849C86.9094 12.6014 86.8582 12.7608 86.7557 12.8633C86.6645 12.9544 86.5108 13 86.2944 13ZM105.377 13H99.9951C98.5714 13 97.5122 12.7153 96.8174 12.1458C96.134 11.5763 95.7923 10.6993 95.7923 9.51471V4.18427C95.7923 2.99973 96.134 2.12271 96.8174 1.55322C97.5122 0.983729 98.5714 0.698983 99.9951 0.698983H104.266C104.483 0.698983 104.636 0.750237 104.728 0.852746C104.83 0.943864 104.881 1.09763 104.881 1.31403V3.38129C104.881 3.59769 104.83 3.75715 104.728 3.85966C104.636 3.95078 104.483 3.99634 104.266 3.99634H100.713C100.36 3.99634 100.098 4.07037 99.9268 4.21844C99.756 4.35512 99.6705 4.56583 99.6705 4.85058V8.93383C99.6705 9.21858 99.7332 9.42929 99.8585 9.56597C99.9951 9.70264 100.194 9.77098 100.456 9.77098H102.114V7.10576C102.114 6.88936 102.159 6.73559 102.25 6.64447C102.353 6.54197 102.512 6.49071 102.729 6.49071H105.377C105.593 6.49071 105.747 6.54197 105.838 6.64447C105.941 6.73559 105.992 6.88936 105.992 7.10576V12.3849C105.992 12.6014 105.941 12.7608 105.838 12.8633C105.747 12.9544 105.593 13 105.377 13Z" fill="#FDF9F2"/>
<path d="M8.32194 44H2.85356C2.38869 44 2.04615 43.9021 1.82594 43.7064C1.63021 43.4862 1.53234 43.1437 1.53234 42.6788V18.8968C1.53234 18.4319 1.63021 18.1016 1.82594 17.9059C2.04615 17.6857 2.38869 17.5756 2.85356 17.5756H8.76235C9.15382 17.5756 9.4719 17.6612 9.71657 17.8325C9.9857 18.0038 10.2304 18.2851 10.4506 18.6766L13.7536 24.6588C13.876 24.879 13.9738 25.038 14.0472 25.1359C14.1451 25.2338 14.2674 25.2827 14.4142 25.2827H14.7445C14.8913 25.2827 15.0014 25.2338 15.0748 25.1359C15.1727 25.038 15.2828 24.879 15.4052 24.6588L18.6715 18.6766C18.8917 18.2851 19.1241 18.0038 19.3688 17.8325C19.638 17.6612 19.9683 17.5756 20.3597 17.5756H26.3052C26.7701 17.5756 27.1004 17.6857 27.2961 17.9059C27.5163 18.1016 27.6264 18.4319 27.6264 18.8968V42.6788C27.6264 43.1437 27.5163 43.4862 27.2961 43.7064C27.1004 43.9021 26.7701 44 26.3052 44H20.6533C20.1885 44 19.8459 43.9021 19.6257 43.7064C19.43 43.4862 19.3321 43.1437 19.3321 42.6788V29.7602L17.1668 33.7605C16.9466 34.1765 16.6774 34.4823 16.3594 34.6781C16.0658 34.8493 15.6865 34.935 15.2217 34.935H13.7536C13.2888 34.935 12.8973 34.8493 12.5792 34.6781C12.2856 34.4823 12.0287 34.1765 11.8085 33.7605L9.64316 29.7602V42.6788C9.64316 43.1437 9.53306 43.4862 9.31286 43.7064C9.11712 43.9021 8.78682 44 8.32194 44ZM42.2565 25.2827L40.5316 30.8612H46.2936L44.5686 25.2827C44.4708 25.0625 44.3607 24.9035 44.2383 24.8056C44.1405 24.7077 44.0181 24.6588 43.8713 24.6588H42.9538C42.807 24.6588 42.6724 24.7077 42.5501 24.8056C42.4522 24.9035 42.3544 25.0625 42.2565 25.2827ZM40.1646 42.6788C40.1646 43.1437 40.0545 43.4862 39.8343 43.7064C39.6385 43.9021 39.3082 44 38.8433 44H33.4484C32.9835 44 32.6409 43.9021 32.4207 43.7064C32.225 43.4862 32.1271 43.1437 32.1271 42.6788V32.9898C32.1271 32.2558 32.2372 31.4117 32.4574 30.4575C32.7021 29.5033 33.0691 28.39 33.5585 27.1177L36.7514 18.7867C36.8982 18.3708 37.1184 18.0649 37.412 17.8692C37.7301 17.6735 38.1338 17.5756 38.6231 17.5756H48.4956C48.9605 17.5756 49.3397 17.6735 49.6333 17.8692C49.9514 18.0649 50.1838 18.3708 50.3306 18.7867L53.5236 27.1177C54.0129 28.39 54.3677 29.5033 54.5879 30.4575C54.8326 31.4117 54.9549 32.2558 54.9549 32.9898V42.6788C54.9549 43.1437 54.8448 43.4862 54.6246 43.7064C54.4288 43.9021 54.0985 44 53.6337 44H48.0919C47.6025 44 47.2355 43.9021 46.9909 43.7064C46.7707 43.4862 46.6606 43.1437 46.6606 42.6788V37.5407H40.1646V42.6788ZM67.7806 24.1817V28.8794H70.5331C71.1693 28.8794 71.5974 28.7203 71.8176 28.4023C72.0379 28.0597 72.148 27.6438 72.148 27.1544V25.9066C72.148 25.4173 72.0379 25.0136 71.8176 24.6955C71.5974 24.353 71.1693 24.1817 70.5331 24.1817H67.7806ZM66.4594 44H60.8075C60.3426 44 60.0001 43.9021 59.7799 43.7064C59.5841 43.4862 59.4863 43.1437 59.4863 42.6788V18.8968C59.4863 18.4319 59.5841 18.1016 59.7799 17.9059C60.0001 17.6857 60.3426 17.5756 60.8075 17.5756H73.0288C75.7691 17.5756 77.653 18.1506 78.6807 19.3005C79.7327 20.426 80.2588 21.894 80.2588 23.7046V25.3928C80.2588 26.4204 80.0997 27.3012 79.7817 28.0353C79.4881 28.7448 78.962 29.2586 78.2035 29.5767C79.5248 29.7235 80.5891 30.2618 81.3965 31.1915C82.2284 32.1212 82.6443 33.3568 82.6443 34.8983V42.6788C82.6443 43.1437 82.5342 43.4862 82.314 43.7064C82.1183 43.9021 81.788 44 81.3231 44H75.6345C75.1696 44 74.8271 43.9021 74.6069 43.7064C74.4112 43.4862 74.3133 43.1437 74.3133 42.6788V37.0636C74.3133 36.5253 74.2032 36.1338 73.983 35.8892C73.7872 35.62 73.4325 35.4855 72.9187 35.4855H67.7806V42.6788C67.7806 43.1437 67.6705 43.4862 67.4503 43.7064C67.2545 43.9021 66.9242 44 66.4594 44ZM99.0188 44H87.4214C86.9565 44 86.614 43.9021 86.3938 43.7064C86.1981 43.4862 86.1002 43.1437 86.1002 42.6788V38.3848C86.1002 37.9199 86.1981 37.5896 86.3938 37.3939C86.614 37.1737 86.9565 37.0636 87.4214 37.0636H97.2939C97.6119 37.0636 97.8444 36.9657 97.9912 36.77C98.1624 36.5498 98.2481 36.2929 98.2481 35.9993C98.2481 35.5833 98.1624 35.2775 97.9912 35.0818C97.8444 34.886 97.6119 34.7759 97.2939 34.7515L91.7888 33.9807C90.0761 33.7361 88.6937 33.1733 87.6416 32.2925C86.614 31.4117 86.1002 29.9437 86.1002 27.8885V24.0349C86.1002 21.9552 86.773 20.3648 88.1187 19.2638C89.4644 18.1383 91.3239 17.5756 93.6972 17.5756H103.973C104.438 17.5756 104.769 17.6857 104.964 17.9059C105.184 18.1016 105.295 18.4319 105.295 18.8968V23.2642C105.295 23.7291 105.184 24.0716 104.964 24.2918C104.769 24.4875 104.438 24.5854 103.973 24.5854H95.4221C95.1041 24.5854 94.8594 24.6955 94.6881 24.9157C94.5169 25.1114 94.4312 25.3683 94.4312 25.6864C94.4312 26.0045 94.5169 26.2736 94.6881 26.4938C94.8594 26.714 95.1041 26.8364 95.4221 26.8608L100.891 27.5948C102.603 27.8395 103.986 28.4023 105.038 29.2831C106.09 30.1639 106.616 31.6319 106.616 33.6871V37.5407C106.616 39.6204 105.931 41.223 104.561 42.3485C103.215 43.4495 101.368 44 99.0188 44Z" fill="#D9310B"/>
</svg>
