<svg width="215" height="90" viewBox="0 0 215 90" fill="none" xmlns="http://www.w3.org/2000/svg">
<path d="M17.5204 26H1.60218C1.16763 26 0.847441 25.9085 0.641602 25.7255C0.458633 25.5197 0.367149 25.1995 0.367149 24.765V2.53435C0.367149 2.0998 0.458633 1.79104 0.641602 1.60807C0.847441 1.40223 1.16763 1.29931 1.60218 1.29931H17.5204C17.955 1.29931 18.2637 1.40223 18.4467 1.60807C18.6525 1.79104 18.7554 2.0998 18.7554 2.53435V6.54821C18.7554 6.98276 18.6525 7.30295 18.4467 7.50879C18.2637 7.69176 17.955 7.78324 17.5204 7.78324H8.05181V10.4248H14.7416C15.1761 10.4248 15.4849 10.5278 15.6679 10.7336C15.8737 10.9166 15.9766 11.2253 15.9766 11.6599V15.3307C15.9766 15.7652 15.8737 16.0854 15.6679 16.2913C15.4849 16.4742 15.1761 16.5657 14.7416 16.5657H8.05181V19.5161H17.5204C17.955 19.5161 18.2637 19.619 18.4467 19.8248C18.6525 20.0078 18.7554 20.3166 18.7554 20.7511V24.765C18.7554 25.1995 18.6525 25.5197 18.4467 25.7255C18.2637 25.9085 17.955 26 17.5204 26ZM30.1897 24.765C30.1897 25.1995 30.0868 25.5197 29.8809 25.7255C29.698 25.9085 29.3892 26 28.9547 26H23.7401C23.3055 26 22.9853 25.9085 22.7795 25.7255C22.5965 25.5197 22.505 25.1995 22.505 24.765V21.0942C22.505 20.0421 22.5965 19.2531 22.7795 18.727C22.9625 18.201 23.3055 17.5835 23.8087 16.8745L26.5875 13.1351L23.8087 9.39565C23.2826 8.68665 22.9281 8.06913 22.7452 7.5431C22.5851 7.01706 22.505 6.22801 22.505 5.17595V2.53435C22.505 2.0998 22.5965 1.79104 22.7795 1.60807C22.9853 1.40223 23.3055 1.29931 23.7401 1.29931H29.0233C29.4578 1.29931 29.7666 1.40223 29.9495 1.60807C30.1554 1.79104 30.2583 2.0998 30.2583 2.53435V4.9015C30.2583 5.13021 30.2697 5.37035 30.2926 5.62193C30.3155 5.87351 30.407 6.11366 30.5671 6.34237L32.0766 8.50368C32.1909 8.68665 32.3053 8.83531 32.4196 8.94966C32.5568 9.04115 32.7169 9.08689 32.8999 9.08689H33.3116C33.4946 9.08689 33.6432 9.04115 33.7576 8.94966C33.8719 8.83531 33.9977 8.68665 34.1349 8.50368L35.6787 6.34237C35.8388 6.11366 35.9303 5.87351 35.9532 5.62193C35.9761 5.37035 35.9875 5.13021 35.9875 4.9015V2.53435C35.9875 2.0998 36.079 1.79104 36.2619 1.60807C36.4678 1.40223 36.788 1.29931 37.2225 1.29931H42.4371C42.8717 1.29931 43.1804 1.40223 43.3634 1.60807C43.5692 1.79104 43.6722 2.0998 43.6722 2.53435V5.17595C43.6722 6.22801 43.5807 7.01706 43.3977 7.5431C43.2147 8.06913 42.8717 8.68665 42.3685 9.39565L39.5897 13.1694L42.3685 16.8745C42.8945 17.5835 43.2376 18.201 43.3977 18.727C43.5807 19.2531 43.6722 20.0421 43.6722 21.0942V24.765C43.6722 25.1995 43.5692 25.5197 43.3634 25.7255C43.1804 25.9085 42.8717 26 42.4371 26H37.2225C36.788 26 36.4678 25.9085 36.2619 25.7255C36.079 25.5197 35.9875 25.1995 35.9875 24.765V21.3686C35.9875 21.1399 35.9761 20.8998 35.9532 20.6482C35.9303 20.3966 35.8388 20.1565 35.6787 19.9277L34.1692 17.7664C34.032 17.5606 33.9062 17.4119 33.7919 17.3205C33.6775 17.229 33.5289 17.1832 33.3459 17.1832H32.8656C32.6826 17.1832 32.534 17.229 32.4196 17.3205C32.3053 17.4119 32.1795 17.5606 32.0422 17.7664L30.4985 19.9277C30.3384 20.1565 30.2469 20.3966 30.224 20.6482C30.2011 20.8998 30.1897 21.1399 30.1897 21.3686V24.765ZM54.6607 26H49.3432C48.9086 26 48.5884 25.9085 48.3826 25.7255C48.1996 25.5197 48.1081 25.1995 48.1081 24.765V2.53435C48.1081 2.0998 48.1996 1.79104 48.3826 1.60807C48.5884 1.40223 48.9086 1.29931 49.3432 1.29931H59.841C62.9514 1.29931 65.0784 1.91683 66.222 3.15186C67.3655 4.3869 67.9373 5.9993 67.9373 7.98908V12.3803C67.9373 14.3701 67.3655 15.9825 66.222 17.2175C65.0784 18.4526 62.9514 19.0701 59.841 19.0701H55.8957V24.765C55.8957 25.1995 55.7928 25.5197 55.587 25.7255C55.404 25.9085 55.0952 26 54.6607 26ZM55.8271 7.71463V12.8949H58.9147C59.578 12.8949 60.0125 12.7234 60.2183 12.3803C60.4242 12.0372 60.5271 11.6484 60.5271 11.2139V9.39565C60.5271 8.9611 60.4242 8.57229 60.2183 8.22923C60.0125 7.88616 59.578 7.71463 58.9147 7.71463H55.8271ZM90.1899 26H72.7279C72.2933 26 71.9732 25.9085 71.7673 25.7255C71.5843 25.5197 71.4929 25.1995 71.4929 24.765V2.53435C71.4929 2.0998 71.5843 1.79104 71.7673 1.60807C71.9732 1.40223 72.2933 1.29931 72.7279 1.29931H78.0454C78.48 1.29931 78.7887 1.40223 78.9717 1.60807C79.1775 1.79104 79.2804 2.0998 79.2804 2.53435V19.5161H83.9804V13.9584C83.9804 13.5239 84.0719 13.2151 84.2549 13.0321C84.4607 12.8263 84.7809 12.7234 85.2155 12.7234H90.1899C90.6245 12.7234 90.9332 12.8263 91.1162 13.0321C91.322 13.2151 91.4249 13.5239 91.4249 13.9584V24.765C91.4249 25.1995 91.322 25.5197 91.1162 25.7255C90.9332 25.9085 90.6245 26 90.1899 26ZM116.274 19.5161C116.274 20.5681 116.113 21.5287 115.793 22.3978C115.496 23.244 114.947 23.9759 114.147 24.5934C113.369 25.1881 112.283 25.6569 110.887 26C109.515 26.3431 107.766 26.5146 105.639 26.5146C103.512 26.5146 101.75 26.3431 100.355 26C98.9602 25.6569 97.8624 25.1881 97.0619 24.5934C96.2843 23.9759 95.7354 23.244 95.4152 22.3978C95.1179 21.5287 94.9692 20.5681 94.9692 19.5161V7.81755C94.9692 6.76548 95.1179 5.81633 95.4152 4.97011C95.7354 4.10101 96.2843 3.3577 97.0619 2.74018C97.8624 2.12267 98.9602 1.64238 100.355 1.29931C101.75 0.956246 103.512 0.784714 105.639 0.784714C107.766 0.784714 109.515 0.956246 110.887 1.29931C112.283 1.64238 113.369 2.12267 114.147 2.74018C114.947 3.3577 115.496 4.10101 115.793 4.97011C116.113 5.81633 116.274 6.76548 116.274 7.81755V19.5161ZM102.757 18.281C102.757 18.7385 102.928 19.1273 103.271 19.4475C103.614 19.7448 104.404 19.8934 105.639 19.8934C106.874 19.8934 107.663 19.7448 108.006 19.4475C108.349 19.1273 108.52 18.7385 108.52 18.281V9.05258C108.52 8.61803 108.349 8.2521 108.006 7.95477C107.663 7.63458 106.874 7.47448 105.639 7.47448C104.404 7.47448 103.614 7.63458 103.271 7.95477C102.928 8.2521 102.757 8.61803 102.757 9.05258V18.281ZM128.394 7.47448V11.8657H130.967C131.562 11.8657 131.962 11.7171 132.168 11.4197C132.374 11.0995 132.477 10.7107 132.477 10.2533V9.08689C132.477 8.62947 132.374 8.2521 132.168 7.95477C131.962 7.63458 131.562 7.47448 130.967 7.47448H128.394ZM127.159 26H121.876C121.441 26 121.121 25.9085 120.915 25.7255C120.732 25.5197 120.641 25.1995 120.641 24.765V2.53435C120.641 2.0998 120.732 1.79104 120.915 1.60807C121.121 1.40223 121.441 1.29931 121.876 1.29931H133.3C135.862 1.29931 137.623 1.83678 138.583 2.91172C139.567 3.96378 140.058 5.33604 140.058 7.0285V8.6066C140.058 9.56718 139.91 10.3905 139.612 11.0767C139.338 11.7399 138.846 12.2202 138.137 12.5175C139.372 12.6548 140.367 13.1579 141.122 14.027C141.9 14.8961 142.288 16.0511 142.288 17.492V24.765C142.288 25.1995 142.185 25.5197 141.98 25.7255C141.797 25.9085 141.488 26 141.053 26H135.736C135.301 26 134.981 25.9085 134.775 25.7255C134.592 25.5197 134.501 25.1995 134.501 24.765V19.5161C134.501 19.0129 134.398 18.647 134.192 18.4183C134.009 18.1667 133.677 18.0409 133.197 18.0409H128.394V24.765C128.394 25.1995 128.291 25.5197 128.085 25.7255C127.902 25.9085 127.594 26 127.159 26ZM146.822 26C146.388 26 146.068 25.9085 145.862 25.7255C145.679 25.5197 145.587 25.1995 145.587 24.765V20.6825C145.587 20.2479 145.679 19.9392 145.862 19.7562C146.068 19.5504 146.388 19.4475 146.822 19.4475H150.219V7.92047H146.822C146.388 7.92047 146.068 7.82898 145.862 7.64602C145.679 7.44018 145.587 7.11998 145.587 6.68543V2.53435C145.587 2.0998 145.679 1.79104 145.862 1.60807C146.068 1.40223 146.388 1.29931 146.822 1.29931H161.437C161.872 1.29931 162.18 1.40223 162.363 1.60807C162.569 1.79104 162.672 2.0998 162.672 2.53435V6.68543C162.672 7.11998 162.569 7.44018 162.363 7.64602C162.18 7.82898 161.872 7.92047 161.437 7.92047H158.109V19.4475H161.437C161.872 19.4475 162.18 19.5504 162.363 19.7562C162.569 19.9392 162.672 20.2479 162.672 20.6825V24.765C162.672 25.1995 162.569 25.5197 162.363 25.7255C162.18 25.9085 161.872 26 161.437 26H146.822ZM173.289 26H168.143C167.708 26 167.388 25.9085 167.182 25.7255C166.999 25.5197 166.908 25.1995 166.908 24.765V2.53435C166.908 2.0998 166.999 1.79104 167.182 1.60807C167.388 1.40223 167.708 1.29931 168.143 1.29931H171.711C172.145 1.29931 172.511 1.36792 172.809 1.50515C173.129 1.64238 173.438 1.88252 173.735 2.22559L180.39 9.84163V2.53435C180.39 2.0998 180.482 1.79104 180.665 1.60807C180.871 1.40223 181.191 1.29931 181.625 1.29931H186.771C187.206 1.29931 187.515 1.40223 187.698 1.60807C187.903 1.79104 188.006 2.0998 188.006 2.53435V24.765C188.006 25.1995 187.903 25.5197 187.698 25.7255C187.515 25.9085 187.206 26 186.771 26H181.625C181.191 26 180.871 25.9085 180.665 25.7255C180.482 25.5197 180.39 25.1995 180.39 24.765V20.5453L174.524 13.4438V24.765C174.524 25.1995 174.421 25.5197 174.215 25.7255C174.032 25.9085 173.723 26 173.289 26ZM211.607 26H200.8C197.941 26 195.814 25.4282 194.419 24.2847C193.047 23.1411 192.361 21.3801 192.361 19.0015V8.29784C192.361 5.91926 193.047 4.15819 194.419 3.01464C195.814 1.87109 197.941 1.29931 200.8 1.29931H209.377C209.811 1.29931 210.12 1.40223 210.303 1.60807C210.509 1.79104 210.612 2.0998 210.612 2.53435V6.68543C210.612 7.11998 210.509 7.44018 210.303 7.64602C210.12 7.82898 209.811 7.92047 209.377 7.92047H202.241C201.532 7.92047 201.006 8.06913 200.663 8.36645C200.32 8.6409 200.148 9.06402 200.148 9.63579V17.8351C200.148 18.4068 200.274 18.8299 200.526 19.1044C200.8 19.3788 201.201 19.5161 201.727 19.5161H205.054V14.1643C205.054 13.7297 205.146 13.4209 205.329 13.238C205.535 13.0321 205.855 12.9292 206.289 12.9292H211.607C212.041 12.9292 212.35 13.0321 212.533 13.238C212.739 13.4209 212.842 13.7297 212.842 14.1643V24.765C212.842 25.1995 212.739 25.5197 212.533 25.7255C212.35 25.9085 212.041 26 211.607 26Z" fill="#FDF9F2"/>
<path d="M16.7186 90H5.73802C4.80455 90 4.11672 89.8035 3.67455 89.4104C3.28151 88.9683 3.08499 88.2804 3.08499 87.347V39.5923C3.08499 38.6588 3.28151 37.9956 3.67455 37.6025C4.11672 37.1603 4.80455 36.9393 5.73802 36.9393H17.603C18.3891 36.9393 19.0278 37.1112 19.5191 37.4551C20.0595 37.799 20.5508 38.364 20.993 39.1501L27.6256 51.1625C27.8712 51.6047 28.0678 51.924 28.2151 52.1205C28.4117 52.317 28.6573 52.4153 28.9521 52.4153H29.6154C29.9101 52.4153 30.1312 52.317 30.2786 52.1205C30.4751 51.924 30.6962 51.6047 30.9419 51.1625L37.5008 39.1501C37.9429 38.364 38.4097 37.799 38.901 37.4551C39.4414 37.1112 40.1047 36.9393 40.8908 36.9393H52.8294C53.7629 36.9393 54.4262 37.1603 54.8192 37.6025C55.2614 37.9956 55.4825 38.6588 55.4825 39.5923V87.347C55.4825 88.2804 55.2614 88.9683 54.8192 89.4104C54.4262 89.8035 53.7629 90 52.8294 90H41.4803C40.5469 90 39.859 89.8035 39.4169 89.4104C39.0238 88.9683 38.8273 88.2804 38.8273 87.347V61.4062L34.4793 69.439C34.0371 70.2742 33.4967 70.8883 32.858 71.2814C32.2684 71.6253 31.5069 71.7972 30.5734 71.7972H27.6256C26.6921 71.7972 25.906 71.6253 25.2673 71.2814C24.6778 70.8883 24.1619 70.2742 23.7197 69.439L19.3717 61.4062V87.347C19.3717 88.2804 19.1506 88.9683 18.7084 89.4104C18.3154 89.8035 17.6521 90 16.7186 90ZM84.8599 52.4153L81.3962 63.617H92.9664L89.5027 52.4153C89.3062 51.9731 89.0851 51.6538 88.8394 51.4573C88.6429 51.2607 88.3973 51.1625 88.1025 51.1625H86.2601C85.9653 51.1625 85.6951 51.2607 85.4495 51.4573C85.2529 51.6538 85.0564 51.9731 84.8599 52.4153ZM80.6593 87.347C80.6593 88.2804 80.4382 88.9683 79.996 89.4104C79.603 89.8035 78.9397 90 78.0062 90H67.173C66.2395 90 65.5517 89.8035 65.1095 89.4104C64.7165 88.9683 64.5199 88.2804 64.5199 87.347V67.8914C64.5199 66.4175 64.741 64.7225 65.1832 62.8064C65.6745 60.8903 66.4115 58.6549 67.3941 56.1001L73.8056 39.3712C74.1004 38.536 74.5425 37.9219 75.1321 37.5288C75.7708 37.1358 76.5814 36.9393 77.564 36.9393H97.3881C98.3216 36.9393 99.0831 37.1358 99.6727 37.5288C100.311 37.9219 100.778 38.536 101.073 39.3712L107.484 56.1001C108.467 58.6549 109.179 60.8903 109.622 62.8064C110.113 64.7225 110.359 66.4175 110.359 67.8914V87.347C110.359 88.2804 110.137 88.9683 109.695 89.4104C109.302 89.8035 108.639 90 107.705 90H96.5775C95.5949 90 94.8579 89.8035 94.3666 89.4104C93.9244 88.9683 93.7034 88.2804 93.7034 87.347V77.0296H80.6593V87.347ZM136.113 50.2044V59.6375H141.64C142.917 59.6375 143.777 59.3181 144.219 58.6794C144.661 57.9916 144.883 57.1564 144.883 56.1738V53.6681C144.883 52.6855 144.661 51.8749 144.219 51.2362C143.777 50.5484 142.917 50.2044 141.64 50.2044H136.113ZM133.46 90H122.111C121.177 90 120.489 89.8035 120.047 89.4104C119.654 88.9683 119.458 88.2804 119.458 87.347V39.5923C119.458 38.6588 119.654 37.9956 120.047 37.6025C120.489 37.1603 121.177 36.9393 122.111 36.9393H146.651C152.154 36.9393 155.937 38.0938 158 40.4029C160.113 42.6629 161.169 45.6108 161.169 49.2464V52.6364C161.169 54.6999 160.85 56.4686 160.211 57.9425C159.622 59.3672 158.565 60.399 157.042 61.0377C159.695 61.3325 161.833 62.4133 163.454 64.2803C165.124 66.1472 165.959 68.6283 165.959 71.7235V87.347C165.959 88.2804 165.738 88.9683 165.296 89.4104C164.903 89.8035 164.24 90 163.306 90H151.884C150.95 90 150.262 89.8035 149.82 89.4104C149.427 88.9683 149.231 88.2804 149.231 87.347V76.0716C149.231 74.9907 149.009 74.2046 148.567 73.7133C148.174 73.1729 147.462 72.9027 146.43 72.9027H136.113V87.347C136.113 88.2804 135.892 88.9683 135.45 89.4104C135.056 89.8035 134.393 90 133.46 90ZM198.84 90H175.552C174.618 90 173.931 89.8035 173.488 89.4104C173.095 88.9683 172.899 88.2804 172.899 87.347V78.7246C172.899 77.7911 173.095 77.1279 173.488 76.7348C173.931 76.2926 174.618 76.0716 175.552 76.0716H195.376C196.015 76.0716 196.481 75.875 196.776 75.482C197.12 75.0398 197.292 74.524 197.292 73.9344C197.292 73.0992 197.12 72.485 196.776 72.092C196.481 71.699 196.015 71.4779 195.376 71.4287L184.322 69.8811C180.883 69.3898 178.107 68.2598 175.994 66.4911C173.931 64.7225 172.899 61.7746 172.899 57.6477V49.9097C172.899 45.7336 174.25 42.5401 176.952 40.3293C179.654 38.0693 183.388 36.9393 188.154 36.9393H208.789C209.722 36.9393 210.385 37.1603 210.778 37.6025C211.221 37.9956 211.442 38.6588 211.442 39.5923V48.3621C211.442 49.2955 211.221 49.9834 210.778 50.4255C210.385 50.8186 209.722 51.0151 208.789 51.0151H191.618C190.979 51.0151 190.488 51.2362 190.144 51.6784C189.8 52.0714 189.628 52.5873 189.628 53.226C189.628 53.8647 189.8 54.4051 190.144 54.8473C190.488 55.2894 190.979 55.5351 191.618 55.5842L202.598 57.0581C206.037 57.5494 208.813 58.6794 210.926 60.4481C213.038 62.2168 214.095 65.1646 214.095 69.2916V77.0296C214.095 81.2057 212.719 84.4237 209.968 86.6837C207.266 88.8946 203.556 90 198.84 90Z" fill="#D9310B"/>
</svg>
